<?xml version="1.0" standalone="no"?>
<!DOCTYPE svg PUBLIC "-//W3C//DTD SVG 20010904//EN"
 "http://www.w3.org/TR/2001/REC-SVG-20010904/DTD/svg10.dtd">
<svg version="1.0" 
    xmlns="http://www.w3.org/2000/svg" width="512.000000pt" height="512.000000pt" viewBox="0 0 512.000000 512.000000" preserveAspectRatio="xMidYMid meet">

    <g transform="translate(0.000000,512.000000) scale(0.100000,-0.100000)" fill="#2196f3" stroke="none">
        <path d="M320 5113 c3 -70 409 -4595 413 -4600 4 -3 416 -120 916 -260 l911
-254 905 253 c498 139 911 255 916 259 7 4 89 892 209 2245 109 1232 202 2267
205 2302 l7 62 -2241 0 c-1233 0 -2241 -3 -2241 -7z m3651 -938 c3 -2 1 -44
-3 -92 -4 -48 -62 -693 -128 -1432 -66 -739 -122 -1346 -124 -1348 -2 -2 -263
-76 -581 -164 l-576 -159 -576 159 c-316 88 -577 162 -579 164 -7 7 -84 889
-78 898 9 15 540 11 551 -3 6 -7 18 -103 27 -213 9 -110 19 -212 22 -226 5
-25 16 -29 307 -108 166 -45 313 -81 326 -81 23 0 622 157 630 165 2 3 83 692
91 783 0 1 -448 2 -995 2 -547 0 -995 3 -995 8 0 4 -12 121 -26 260 -15 139
-24 255 -22 258 3 2 455 9 1004 15 550 6 1017 12 1040 15 l41 5 17 242 c9 133
19 262 23 285 l6 44 -1091 -3 c-600 -2 -1094 -1 -1097 3 -7 7 -44 510 -38 521
4 7 2816 10 2824 2z"/>
    </g>
</svg>
