<?xml version="1.0" standalone="no"?>
<!DOCTYPE svg PUBLIC "-//W3C//DTD SVG 20010904//EN"
 "http://www.w3.org/TR/2001/REC-SVG-20010904/DTD/svg10.dtd">
<svg version="1.0" xmlns="http://www.w3.org/2000/svg"
 width="512.000000pt" height="512.000000pt" viewBox="0 0 512.000000 512.000000"
 preserveAspectRatio="xMidYMid meet">

<g transform="translate(0.000000,512.000000) scale(0.100000,-0.100000)"
fill="#000000" stroke="none">
<path d="M1597 5109 c-344 -40 -631 -296 -723 -644 -14 -53 -18 -104 -18 -205
1 -116 5 -148 28 -223 63 -210 180 -368 358 -484 120 -78 288 -131 421 -134
45 -1 40 -3 -39 -14 -119 -18 -193 -39 -278 -81 -232 -116 -391 -311 -457
-559 -16 -61 -21 -110 -21 -205 0 -145 20 -239 77 -359 89 -186 227 -322 418
-411 160 -74 155 -73 703 -78 l491 -3 8 1694 c4 932 4 1700 1 1706 -8 13 -858
13 -969 0z"/>
</g>
</svg>
