<?xml version="1.0" standalone="no"?>
<!DOCTYPE svg PUBLIC "-//W3C//DTD SVG 20010904//EN"
 "http://www.w3.org/TR/2001/REC-SVG-20010904/DTD/svg10.dtd">
<svg version="1.0"
    xmlns="http://www.w3.org/2000/svg" width="512.000000pt" height="515.000000pt" viewBox="0 0 512.000000 515.000000" preserveAspectRatio="xMidYMid meet">

    <g transform="translate(0.000000,515.000000) scale(0.100000,-0.100000)" fill="#61dafb " stroke="none">
        <path d="M1410 4786 c-162 -46 -294 -183 -354 -371 -64 -203 -61 -517 9 -860
14 -66 25 -125 25 -131 0 -6 -46 -26 -102 -44 -485 -153 -807 -380 -910 -640
-32 -80 -32 -251 1 -333 69 -175 254 -348 511 -477 113 -57 292 -128 413 -165
48 -14 87 -32 87 -38 0 -7 -11 -66 -25 -132 -70 -343 -73 -657 -9 -860 80
-248 257 -385 498 -385 263 0 584 166 913 471 41 38 78 69 83 69 5 0 42 -31
83 -69 329 -305 650 -471 913 -471 260 0 435 150 511 438 51 194 42 496 -22
808 -14 65 -25 124 -25 131 0 6 46 26 102 43 478 149 807 380 910 640 32 80
32 251 0 331 -103 260 -424 486 -909 639 -57 18 -103 38 -103 44 0 6 11 65 25
131 70 343 73 657 9 860 -46 143 -149 277 -254 330 -80 41 -143 55 -248 55
-268 0 -540 -144 -944 -501 l-48 -42 -47 42 c-325 286 -544 422 -773 481 -90
23 -248 26 -320 6z m266 -216 c184 -47 401 -181 641 -398 l83 -74 -29 -31
c-76 -82 -193 -224 -289 -352 -58 -77 -108 -141 -111 -142 -3 -1 -82 -12 -176
-23 -93 -12 -228 -33 -300 -46 -71 -14 -143 -27 -160 -30 l-30 -6 -23 104
c-58 268 -73 546 -38 703 36 162 106 261 208 296 69 24 127 24 224 -1z m1963
4 c174 -51 262 -300 231 -657 -14 -168 -66 -447 -82 -447 -5 0 -63 11 -131 24
-114 23 -334 56 -473 71 l-60 7 -59 80 c-80 112 -200 261 -290 362 l-75 84 83
74 c238 215 456 350 637 397 92 24 151 26 219 5z m-1018 -712 c54 -62 172
-207 210 -257 5 -7 -85 -11 -281 -11 -196 0 -286 4 -281 11 77 102 272 334
281 334 3 0 35 -35 71 -77z m366 -498 c38 -11 265 -377 417 -675 l60 -115 -78
-148 c-99 -188 -198 -358 -298 -513 -72 -111 -83 -123 -116 -130 -48 -10 -795
-10 -844 0 -33 7 -43 19 -116 130 -100 155 -199 325 -298 512 l-77 147 44 89
c24 49 46 89 50 89 4 0 9 10 13 23 8 32 170 313 266 461 45 69 83 127 84 127
19 16 840 19 893 3z m-1180 -41 c-2 -5 -36 -60 -74 -123 -38 -63 -100 -171
-138 -238 -37 -68 -71 -120 -75 -115 -15 16 -150 380 -150 404 0 9 63 23 245
55 136 24 199 29 192 17z m1680 -18 c175 -29 243 -44 243 -54 0 -24 -135 -388
-150 -404 -4 -5 -38 47 -75 115 -38 67 -100 175 -138 238 -38 63 -72 118 -74
123 -7 12 39 8 194 -18z m-2277 -257 c29 -84 83 -225 121 -313 l68 -160 -68
-160 c-38 -88 -92 -229 -121 -312 -31 -89 -58 -153 -65 -153 -26 0 -264 84
-365 129 -259 115 -437 258 -495 396 -22 55 -21 150 3 205 79 178 327 345 712
476 69 24 132 43 141 43 12 1 30 -38 69 -151z m2883 111 c384 -129 648 -307
722 -484 21 -51 21 -149 0 -200 -58 -138 -236 -281 -495 -396 -101 -45 -339
-129 -365 -129 -7 0 -34 64 -65 153 -29 83 -83 224 -121 312 l-68 160 68 160
c38 88 92 229 121 313 34 98 58 152 67 152 7 0 68 -19 136 -41z m-2494 -976
c39 -71 102 -180 140 -243 53 -86 67 -116 55 -118 -27 -6 -409 60 -422 73 -7
7 45 155 139 393 5 12 11 22 13 22 3 0 36 -57 75 -127z m2044 -33 c64 -170 91
-250 85 -256 -13 -12 -395 -78 -422 -72 -12 2 2 32 55 118 38 63 102 173 141
243 38 71 74 125 78 120 4 -4 33 -73 63 -153z m-2196 -495 c115 -23 330 -55
469 -70 l60 -7 59 -80 c80 -112 200 -261 290 -362 l75 -84 -83 -74 c-240 -217
-457 -351 -641 -398 -95 -24 -145 -25 -215 -4 -228 67 -298 457 -179 1002 13
56 27 102 33 102 5 0 65 -11 132 -25z m2371 -77 c58 -268 73 -546 38 -703 -37
-166 -111 -268 -217 -299 -70 -21 -120 -20 -215 4 -184 47 -401 181 -641 398
l-83 74 75 84 c90 101 210 250 290 362 l59 80 60 7 c120 13 403 56 486 74 135
29 122 36 148 -81z m-991 -38 c-15 -20 -88 -111 -104 -130 -96 -116 -169 -199
-173 -199 -9 0 -204 233 -281 334 -5 7 85 11 281 11 257 0 288 -2 277 -16z"/>
        <path d="M2440 3006 c-77 -21 -143 -59 -203 -118 -174 -172 -174 -456 1 -626
180 -176 446 -176 625 0 174 172 174 454 0 626 -114 112 -277 158 -423 118z"/>
    </g>
</svg>
